<?xml version="1.0" standalone="no"?>
<!DOCTYPE svg PUBLIC "-//W3C//DTD SVG 20010904//EN"
 "http://www.w3.org/TR/2001/REC-SVG-20010904/DTD/svg10.dtd">
<svg version="1.0" xmlns="http://www.w3.org/2000/svg"
 width="1024.000000pt" height="1024.000000pt" viewBox="0 0 1024.000000 1024.000000"
 preserveAspectRatio="xMidYMid meet">
<metadata>
Created by potrace 1.14, written by Peter Selinger 2001-2017
</metadata>
<g transform="translate(0.000000,1024.000000) scale(0.100000,-0.100000)"
fill="#000000" stroke="none">
<path d="M7090 10235 c0 -5 48 -28 63 -29 4 -1 6 -4 5 -7 -2 -3 3 -13 10 -22
10 -12 10 -17 1 -23 -7 -4 -9 -3 -5 4 3 6 2 13 -4 17 -6 4 -7 11 -4 17 5 7 2
8 -5 3 -9 -5 -9 -11 -3 -17 6 -6 8 -17 5 -25 -4 -10 0 -14 13 -13 30 3 48 1
41 -6 -3 -4 4 -15 16 -25 l22 -18 -22 6 c-17 4 -23 1 -23 -11 0 -10 4 -15 9
-12 5 3 14 -1 21 -9 7 -8 17 -12 23 -8 6 3 7 1 3 -5 -4 -7 3 -16 17 -21 14 -6
28 -15 33 -22 5 -9 2 -10 -10 -6 -10 4 -15 3 -11 -3 3 -6 13 -10 21 -10 8 0
14 -7 14 -16 0 -8 5 -12 10 -9 6 3 10 1 10 -5 0 -6 4 -9 9 -6 5 3 11 -4 14
-15 3 -12 10 -18 17 -14 6 3 9 1 8 -6 -2 -7 12 -23 31 -36 19 -12 28 -23 21
-23 -7 0 -1 -10 13 -23 15 -12 27 -28 27 -35 0 -7 6 -12 14 -12 7 0 19 -7 26
-15 7 -8 19 -15 27 -15 8 0 26 -9 40 -20 22 -17 23 -20 7 -20 -18 -1 -18 -1
-1 -11 9 -5 23 -7 30 -3 6 4 9 3 4 -1 -4 -5 3 -19 15 -32 23 -24 11 -31 -23
-12 -18 9 -19 8 -7 -10 6 -11 15 -18 18 -16 4 3 16 -4 27 -14 10 -10 29 -24
41 -30 13 -7 19 -17 16 -23 -4 -6 -3 -8 4 -4 6 3 13 2 17 -4 4 -6 10 -8 15 -5
5 3 11 1 15 -5 4 -6 10 -8 15 -5 5 3 7 -6 4 -21 -3 -14 -1 -23 4 -20 11 6 62
-48 62 -67 0 -13 38 -55 46 -49 2 1 4 -1 5 -5 0 -5 7 -11 14 -16 7 -4 19 -24
26 -45 7 -20 19 -44 28 -52 9 -8 17 -24 19 -35 2 -11 13 -33 24 -49 11 -16 16
-26 10 -22 -6 4 -19 -5 -28 -19 -16 -25 -16 -27 5 -46 11 -11 21 -24 21 -29 0
-6 4 -10 9 -10 4 0 6 12 4 28 -4 26 -4 26 11 8 8 -10 13 -23 9 -29 -3 -6 -2
-8 3 -5 5 3 18 2 29 -2 14 -5 5 -9 -34 -14 -29 -4 -52 -9 -50 -11 2 -2 91 -5
197 -6 106 -2 195 -6 198 -10 2 -4 -8 -22 -23 -41 -18 -21 -21 -28 -8 -18 20
14 20 14 1 -7 -10 -13 -22 -20 -26 -18 -4 3 -13 -2 -20 -10 -7 -8 -9 -15 -6
-15 4 0 -9 -14 -28 -30 -24 -22 -33 -38 -32 -55 2 -15 -6 -32 -20 -46 -13 -12
-21 -25 -19 -29 2 -4 -2 -7 -10 -7 -10 0 -12 4 -5 12 5 7 6 16 2 20 -4 5 -1 5
7 0 10 -6 12 -4 6 5 -6 9 -4 11 5 5 9 -6 11 -4 5 5 -6 9 -4 11 5 5 9 -6 11 -4
5 5 -6 9 -4 11 5 5 9 -6 11 -4 5 4 -5 9 -15 5 -36 -15 -15 -15 -26 -31 -23
-35 2 -5 -6 -15 -20 -24 -23 -16 -318 -333 -481 -520 -156 -178 -279 -310
-292 -313 -7 -2 -13 -10 -13 -18 0 -8 -4 -12 -10 -9 -5 3 16 36 48 74 104 123
409 466 442 496 70 66 123 157 93 161 -7 1 -20 2 -28 3 -8 0 -31 17 -52 37
-114 107 -166 145 -260 192 -45 22 -90 43 -101 46 -20 7 -64 -56 -271 -381
-29 -46 -57 -83 -63 -83 -5 0 -7 -4 -4 -9 8 -12 -28 -21 -62 -15 -34 5 -140
33 -170 45 -13 5 -31 9 -40 9 -9 0 -66 19 -127 41 -60 23 -114 42 -120 43 -5
2 -23 8 -40 15 -16 7 -59 24 -95 38 -36 14 -105 45 -155 69 l-90 43 -28 -55
c-18 -36 -33 -54 -42 -51 -7 3 -55 34 -107 70 -51 35 -191 130 -310 210 l-218
147 -487 0 -486 0 23 -25 c13 -14 26 -23 28 -20 9 9 51 -37 46 -49 -3 -7 2
-19 11 -26 8 -7 15 -9 15 -5 0 5 9 0 20 -10 11 -10 17 -21 15 -26 -3 -4 88
-124 203 -266 114 -142 259 -325 322 -408 63 -82 148 -193 190 -245 79 -98
407 -534 544 -722 83 -116 115 -149 43 -45 -42 60 -43 63 -26 81 10 10 17 22
14 25 -2 4 1 13 6 21 7 13 10 13 18 1 6 -9 11 -10 15 -2 9 14 61 3 118 -26 26
-14 57 -26 70 -28 26 -4 86 -26 106 -38 7 -5 19 -4 27 3 34 28 17 -16 -53
-140 -109 -191 -105 -180 -75 -226 47 -70 105 -134 115 -128 6 4 5 -3 -1 -15
-7 -11 -14 -21 -16 -21 -6 0 -211 276 -380 510 -81 113 -160 221 -175 240 -14
19 -116 154 -226 300 -358 474 -661 857 -872 1104 -57 66 -117 136 -133 155
l-30 36 5 -40 c16 -129 17 -133 36 -138 38 -10 80 -130 80 -230 0 -101 -38
-153 -125 -173 -36 -9 -41 -14 -53 -57 -7 -26 -16 -47 -20 -48 -4 0 -18 -2
-32 -4 -14 -2 -54 -4 -90 -5 -36 -2 -69 -5 -74 -8 -8 -4 -33 -9 -83 -14 -7 -1
-13 -5 -13 -10 0 -5 -4 -7 -9 -3 -5 3 -12 1 -16 -5 -4 -6 -11 -7 -17 -4 -7 4
-8 2 -4 -5 4 -6 12 -8 18 -5 7 4 8 2 4 -4 -4 -7 -16 -12 -26 -12 -24 0 -46
-33 -54 -80 -3 -19 -9 -51 -12 -70 -3 -19 -8 -42 -11 -50 -4 -8 -7 -22 -7 -31
-1 -9 -7 -23 -14 -32 -9 -11 -10 -17 -2 -22 8 -5 8 -11 0 -19 -5 -7 -9 -26 -8
-41 2 -16 -2 -30 -8 -32 -6 -2 -9 -15 -6 -28 2 -14 0 -31 -4 -38 -8 -10 -11
-178 -4 -197 1 -3 3 -23 4 -45 3 -55 23 -120 41 -135 8 -7 15 -21 15 -32 0
-11 11 -31 25 -46 13 -15 36 -40 49 -57 l24 -30 -21 -35 c-45 -76 -7 -26 328
431 144 196 286 393 316 437 51 77 69 95 69 71 0 -15 -77 -133 -183 -277 -52
-70 -151 -208 -222 -307 -166 -232 -537 -724 -564 -749 l-21 -19 -2 -2011 c0
-1106 -3 -1996 -5 -1978 -2 18 -8 30 -12 28 -18 -12 -21 319 -21 2374 l0 2156
-91 149 c-143 237 -186 299 -219 318 -16 10 -30 16 -30 12 0 -3 -28 9 -61 27
-34 18 -73 39 -88 47 -95 50 -230 151 -339 255 -35 34 -69 64 -77 69 -8 4 -16
16 -16 25 -11 128 -14 -491 -11 -2610 l2 -2527 75 -50 c41 -28 74 -46 72 -40
-1 5 21 18 49 28 28 10 82 36 120 57 38 21 69 36 70 34 0 -3 9 1 18 9 39 32
163 77 237 85 66 7 80 -11 79 -99 -1 -51 -21 -107 -63 -180 -71 -121 -129
-191 -148 -179 -5 3 -9 3 -9 0 0 -4 176 -130 246 -177 13 -9 26 -19 29 -22 3
-4 2 -5 -2 -2 -3 3 -11 1 -17 -4 -6 -5 -42 -16 -81 -26 -38 -9 -81 -23 -95
-30 -23 -12 -38 -9 -135 24 -133 46 -365 138 -498 197 -53 24 -98 44 -100 44
-2 0 47 -51 108 -113 97 -99 379 -411 610 -674 44 -50 81 -90 83 -88 2 2 5 19
7 39 1 19 9 41 16 48 19 18 96 55 163 78 31 10 64 27 74 36 16 17 17 17 20 0
2 -9 -2 -48 -8 -86 l-11 -68 -117 -22 c-64 -12 -122 -25 -129 -29 -11 -6 179
-252 280 -361 23 -25 10 -14 -28 25 -71 71 -171 189 -213 251 -12 19 -26 34
-31 34 -6 0 -13 9 -16 20 -3 11 -11 20 -16 20 -13 0 -65 61 -61 72 1 5 -4 11
-12 14 -19 7 -198 201 -366 394 -140 161 -429 454 -680 690 -91 85 -209 199
-264 255 -54 55 -93 89 -86 75 23 -43 82 -125 90 -125 5 0 12 -4 17 -9 5 -5 2
-6 -6 -1 -9 5 -12 3 -9 -6 3 -8 11 -13 17 -11 7 1 10 -2 6 -7 -8 -14 25 -62
38 -54 6 4 7 1 2 -6 -4 -7 1 -22 13 -34 11 -12 25 -33 33 -47 13 -26 20 -100
9 -100 -12 0 -4 -135 14 -225 10 -49 21 -111 23 -137 3 -27 8 -46 12 -44 4 3
7 -3 8 -12 2 -26 10 -77 13 -77 1 0 3 -11 5 -25 5 -40 13 -67 24 -89 7 -13 8
-22 1 -26 -16 -10 -12 -25 6 -25 14 0 15 -2 3 -17 -10 -11 -10 -14 -2 -9 9 5
13 0 14 -16 0 -13 2 -32 4 -43 3 -11 6 -35 8 -53 2 -19 8 -37 14 -40 5 -4 9
-26 8 -49 0 -24 3 -43 8 -43 5 0 7 -11 3 -24 -3 -12 -2 -26 2 -30 4 -4 8 -12
8 -17 1 -5 2 -10 4 -11 4 -6 11 -45 13 -73 2 -16 7 -36 12 -44 4 -8 10 -33 12
-55 2 -23 5 -59 7 -81 3 -34 16 -200 19 -242 0 -7 4 -13 9 -13 5 0 9 -26 8
-58 -2 -59 7 -105 19 -97 4 2 8 -3 8 -11 0 -9 -6 -13 -15 -9 -12 4 -12 2 -4
-8 7 -8 9 -17 5 -21 -9 -8 -12 -57 -4 -52 13 8 26 -21 29 -62 2 -30 -1 -41 -9
-37 -8 6 -8 2 0 -12 6 -11 8 -23 4 -26 -3 -3 2 -13 11 -22 17 -18 12 -40 -6
-29 -7 4 -8 2 -4 -5 4 -6 12 -9 17 -6 14 9 11 -12 -4 -27 -7 -7 -15 -16 -18
-20 -6 -9 42 -59 51 -53 4 3 14 -3 21 -13 13 -15 12 -16 -4 -3 -12 9 -17 10
-17 2 0 -7 -5 -9 -12 -5 -7 4 -8 3 -4 -5 4 -6 11 -9 16 -6 5 3 11 1 15 -5 3
-5 0 -10 -7 -10 -9 0 -9 -3 2 -10 8 -5 12 -10 7 -10 -4 0 0 -14 9 -31 8 -17
12 -29 6 -26 -5 4 -9 0 -9 -8 0 -8 4 -12 9 -9 4 3 8 -4 8 -16 0 -12 -5 -18
-10 -15 -6 3 -10 2 -10 -3 0 -5 8 -12 18 -14 10 -3 19 -12 19 -21 0 -9 -6 -13
-14 -10 -16 6 33 -96 51 -109 6 -4 7 -8 2 -8 -5 0 -19 8 -30 17 -21 18 -21 18
-5 -2 9 -11 14 -26 12 -33 -7 -18 26 -52 43 -45 8 3 14 0 14 -6 0 -6 -6 -11
-12 -11 -7 0 -4 -7 7 -16 16 -12 17 -18 8 -33 -8 -12 -8 -22 -2 -28 6 -6 11
-17 13 -26 2 -19 25 -47 38 -47 6 0 7 8 3 17 -4 13 -3 15 5 7 7 -7 8 -19 1
-37 -7 -19 -7 -27 0 -27 6 0 8 -4 5 -8 -3 -5 1 -9 9 -9 8 0 12 4 9 8 -2 4 0
10 4 13 5 3 9 -5 8 -17 -1 -12 -7 -21 -14 -19 -16 3 -15 -10 1 -27 7 -9 8 -12
0 -7 -27 15 -4 -28 39 -72 25 -26 44 -52 41 -59 -2 -6 1 -15 8 -19 8 -4 9 -3
5 4 -4 8 0 12 12 12 32 0 33 -12 2 -35 -29 -21 -29 -23 -12 -39 21 -18 34 -12
25 12 -4 10 5 6 22 -10 15 -15 31 -25 36 -22 5 3 9 0 9 -6 0 -6 10 -15 23 -20
13 -5 16 -9 7 -10 -9 0 -6 -6 10 -15 22 -12 520 -14 3603 -15 l3577 0 0 5120
0 5120 -1575 0 c-866 0 -1575 -2 -1575 -5z m595 -595 c3 -5 1 -10 -4 -10 -6 0
-11 5 -11 10 0 6 2 10 4 10 3 0 8 -4 11 -10z m150 -148 c-6 -7 -35 18 -35 31
0 5 9 2 20 -8 11 -10 18 -20 15 -23z m195 -278 c0 -2 -7 -4 -15 -4 -8 0 -15 4
-15 10 0 5 7 7 15 4 8 -4 15 -8 15 -10z m-10 -90 c0 -8 -4 -12 -10 -9 -5 3
-10 13 -10 21 0 8 5 12 10 9 6 -3 10 -13 10 -21z m-3135 -128 c80 -1 93 -6 91
-38 -1 -16 -8 -24 -24 -26 -12 -2 -35 -10 -49 -17 -19 -10 -31 -11 -40 -4 -6
6 -16 8 -21 5 -5 -3 -21 -7 -36 -10 -25 -4 -26 -3 -14 11 7 9 8 14 2 10 -12
-7 -32 11 -32 28 0 6 5 16 11 23 8 10 7 16 -4 24 -10 7 -5 7 16 2 17 -4 62 -8
100 -8z m516 -57 c66 -63 86 -149 54 -238 -14 -40 -64 -115 -71 -108 -6 6 -83
273 -94 325 -6 26 -12 57 -15 68 -5 21 -4 21 42 5 25 -9 63 -32 84 -52z m2943
-30 c-3 -5 -10 -7 -15 -3 -5 3 -7 10 -3 15 3 5 10 7 15 3 5 -3 7 -10 3 -15z
m-44 -32 c0 -2 -10 -12 -22 -23 l-23 -19 19 23 c18 21 26 27 26 19z m-104
-155 c-2 -4 2 -16 10 -27 9 -13 14 -14 14 -5 0 8 19 -7 43 -33 23 -26 47 -47
54 -47 6 0 13 -7 17 -15 4 -12 2 -13 -13 -5 -18 9 -19 8 -5 -19 8 -16 21 -34
29 -41 12 -10 12 -15 -1 -35 -14 -21 -13 -24 4 -37 26 -18 34 -35 17 -35 -8 0
-13 3 -12 6 1 3 -9 17 -22 30 l-24 24 7 -24 c4 -13 9 -33 10 -44 1 -11 7 -30
14 -42 16 -29 16 -51 0 -35 -18 18 -38 14 -38 -8 0 -11 5 -20 12 -20 6 0 8 -3
4 -7 -4 -5 -14 1 -22 11 -8 11 -14 14 -14 7 0 -7 -5 -9 -10 -6 -6 4 -9 1 -8
-7 2 -7 -3 -12 -10 -10 -8 1 -11 -2 -7 -8 10 -17 -5 -33 -20 -20 -10 8 -15 8
-20 0 -5 -8 -11 -8 -21 1 -8 6 -14 8 -14 3 0 -4 -10 2 -23 14 -13 12 -27 19
-30 15 -4 -3 -7 -2 -7 4 0 5 -17 9 -37 7 -23 -1 -37 -7 -35 -14 1 -6 -2 -9 -8
-5 -6 3 -8 10 -5 15 3 4 -2 11 -11 14 -10 4 -13 2 -8 -6 5 -7 0 -9 -14 -6 -12
4 -23 0 -26 -7 -3 -9 -13 -11 -28 -7 -21 5 -22 4 -9 -11 8 -10 9 -17 3 -17 -6
0 -14 5 -17 10 -5 8 -11 8 -20 0 -9 -7 -16 -6 -25 5 -11 13 -15 13 -21 3 -13
-19 -11 -30 4 -22 7 4 9 3 4 -2 -5 -5 -13 -9 -17 -9 -5 0 -17 -9 -26 -20 -15
-19 -15 -19 -2 5 46 81 122 199 144 225 14 17 23 25 20 19 -3 -6 1 -11 9 -11
8 0 13 5 12 11 -1 6 4 10 11 8 8 -1 11 2 8 7 -4 5 3 13 15 16 19 6 18 20 -2
20 -5 0 -10 4 -10 8 -2 15 41 67 54 66 9 0 9 -2 -1 -6 -6 -2 -10 -9 -6 -14 3
-5 0 -8 -8 -7 -7 2 -12 -3 -10 -9 1 -7 -3 -13 -9 -13 -5 0 -7 -4 -4 -10 9 -15
25 -12 25 5 0 8 3 15 8 15 14 0 31 49 20 57 -7 4 -8 1 -3 -7 5 -9 4 -11 -4 -6
-16 10 67 109 85 102 8 -3 13 -2 13 2 -3 16 2 23 11 17 6 -4 8 -9 6 -13z m24
-2 c0 -5 -5 -10 -11 -10 -5 0 -7 5 -4 10 3 6 8 10 11 10 2 0 4 -4 4 -10z m27
-12 c-3 -8 -6 -5 -6 6 -1 11 2 17 5 13 3 -3 4 -12 1 -19z m-237 -182 c0 -2 -8
-10 -17 -17 -16 -13 -17 -12 -4 4 13 16 21 21 21 13z m360 -132 c0 -10 -11
-11 -38 -5 -2 1 -1 5 2 9 8 13 36 10 36 -4z m-259 -111 c13 -16 12 -17 -3 -4
-10 7 -18 15 -18 17 0 8 8 3 21 -13z m-1171 -917 c0 -2 -8 -10 -17 -17 -16
-13 -17 -12 -4 4 13 16 21 21 21 13z m-82 -103 c-8 -10 -39 -47 -70 -83 -30
-36 -64 -76 -76 -90 -12 -14 -58 -70 -103 -125 -102 -126 -99 -123 -99 -102 0
22 348 433 358 423 3 -3 -2 -14 -10 -23z m-948 -982 c193 -12 300 -40 490
-128 162 -75 408 -244 619 -425 43 -37 82 -64 85 -60 4 4 6 0 4 -8 -2 -9 3
-14 12 -12 8 2 12 0 8 -4 -11 -10 32 -65 44 -58 6 4 8 3 5 -3 -4 -5 5 -25 19
-44 14 -19 39 -58 56 -87 21 -38 33 -50 39 -41 4 7 3 21 -2 30 -15 30 -9 35
11 10 24 -28 26 -20 4 14 -19 29 -10 33 14 7 10 -10 14 -13 11 -7 -3 5 -5 17
-4 25 0 8 -4 18 -9 21 -12 9 1 42 14 34 6 -3 13 1 16 9 7 19 45 21 62 4 7 -7
12 -9 12 -6 0 4 -7 14 -16 22 -10 10 -11 16 -4 16 7 0 10 7 6 15 -4 11 2 15
22 16 24 0 25 1 7 8 -11 5 -24 6 -30 3 -5 -3 -4 2 4 11 7 9 17 15 21 12 5 -3
12 0 16 6 4 8 3 9 -4 5 -8 -5 -10 -2 -6 9 5 13 9 13 22 3 12 -10 14 -10 8 0
-4 6 -3 12 1 12 5 0 15 -6 23 -12 8 -7 7 -4 -2 7 -20 24 -7 40 39 47 29 4 30
3 22 -24 -4 -16 -4 -28 2 -28 5 0 9 10 9 23 0 30 12 47 39 52 12 2 19 0 16 -5
-3 -5 -1 -11 5 -15 5 -3 10 2 10 12 0 33 20 44 51 27 19 -9 29 -11 29 -4 0 6
5 8 11 4 8 -4 9 1 4 17 -4 15 -3 19 3 11 5 -7 16 -10 25 -6 21 8 22 24 2 24
-8 0 -15 4 -15 8 0 13 41 7 50 -7 4 -8 28 -14 53 -16 41 -1 44 0 34 16 -6 10
-16 15 -22 12 -5 -4 -6 -2 -2 2 14 15 40 14 52 -2 9 -12 14 -13 19 -4 4 6 3
18 -4 26 -14 17 5 31 23 18 7 -5 22 -10 35 -11 19 -1 21 2 12 14 -9 10 -9 14
-1 14 22 0 82 -30 77 -38 -3 -5 1 -9 9 -9 11 0 12 4 4 14 -8 9 -8 13 -1 13 6
0 17 -8 24 -17 7 -10 21 -19 30 -19 16 -2 16 0 3 19 -18 26 -19 41 -2 30 6 -4
19 -6 28 -5 9 2 22 -5 30 -15 12 -15 12 -16 -2 -11 -12 5 -16 1 -15 -15 1 -15
9 -23 23 -25 14 -2 20 -8 16 -18 -3 -8 0 -14 6 -14 7 0 11 -7 9 -16 -2 -11 5
-18 21 -20 20 -4 23 -1 19 21 -4 21 -3 23 9 14 8 -7 11 -20 7 -31 -6 -19 -5
-19 13 -1 15 14 17 22 9 33 -10 13 -9 13 6 1 23 -17 20 -61 -4 -61 -10 0 -18
-5 -18 -12 0 -6 3 -8 7 -5 6 7 37 -51 35 -65 -1 -3 5 -9 13 -12 10 -4 15 1 15
16 0 22 12 17 16 -6 5 -34 16 -56 26 -50 7 4 8 2 4 -4 -4 -6 1 -26 11 -44 13
-25 18 -29 21 -15 2 9 7 15 12 12 5 -3 7 -12 4 -19 -3 -8 4 -16 18 -20 20 -6
21 -8 8 -19 -10 -7 -16 -27 -15 -54 0 -23 -3 -39 -7 -37 -18 11 -7 -13 12 -26
20 -14 29 -37 11 -25 -5 3 -13 1 -16 -5 -4 -6 -1 -9 5 -8 18 4 20 -28 3 -49
-8 -10 -12 -13 -10 -8 3 6 -1 19 -9 30 -28 38 -11 -16 21 -65 25 -39 29 -42
36 -25 6 17 7 16 6 -7 -1 -15 -5 -24 -9 -22 -5 3 -6 -12 -2 -34 3 -23 1 -48
-5 -61 -13 -23 -2 -28 18 -8 10 10 12 9 9 -3 -2 -8 -9 -17 -16 -20 -11 -5 -10
-9 4 -20 15 -12 16 -12 9 -1 -6 10 -4 12 4 6 7 -4 11 -18 8 -31 -2 -13 -1 -24
3 -24 8 0 30 68 30 96 1 13 7 8 19 -16 18 -36 19 -140 0 -140 -4 0 -6 -7 -3
-15 4 -8 1 -15 -5 -15 -7 0 -11 21 -11 52 l0 52 -17 -24 c-24 -35 -32 -197 -9
-206 9 -3 13 -14 10 -27 -3 -12 -7 -43 -9 -70 -2 -26 -6 -51 -9 -55 -3 -5 -6
-28 -7 -51 -2 -23 -7 -45 -13 -48 -5 -3 -6 -2 -3 3 3 6 2 16 -4 24 -6 11 -9 4
-9 -24 0 -32 2 -36 14 -27 18 15 24 -4 25 -71 0 -52 -13 -71 -24 -35 -5 15
-11 -4 -20 -68 -7 -56 -8 -92 -2 -96 5 -4 1 -13 -9 -20 -11 -8 -20 -25 -20
-39 -1 -14 -4 -37 -7 -51 -3 -14 -1 -32 4 -40 7 -11 9 -10 10 6 4 53 7 67 19
78 9 8 11 9 7 1 -4 -7 0 -15 9 -18 8 -3 13 -10 9 -15 -3 -5 4 -12 15 -16 11
-3 20 -14 20 -24 0 -21 -23 -44 -33 -34 -4 3 -7 -7 -6 -23 0 -25 2 -26 9 -9 7
16 9 12 8 -17 -1 -21 -4 -35 -7 -33 -7 7 -42 -105 -36 -115 3 -5 2 -11 -3 -14
-5 -3 -14 -41 -22 -86 -8 -49 -17 -75 -22 -68 -4 8 -8 -5 -8 -32 0 -33 3 -41
10 -30 8 12 10 10 10 -11 0 -14 -3 -29 -7 -33 -4 -3 -8 -12 -9 -19 -2 -7 -12
-37 -23 -67 -12 -30 -21 -62 -21 -70 0 -9 -8 -31 -18 -50 -9 -19 -24 -55 -31
-80 -8 -25 -23 -57 -34 -73 -10 -15 -16 -27 -12 -27 3 0 0 -10 -7 -22 -7 -13
-11 -26 -10 -30 1 -5 -2 -8 -7 -8 -5 0 -12 -7 -15 -16 -4 -10 -2 -13 6 -8 7 4
2 -6 -10 -23 -12 -17 -22 -44 -22 -60 0 -16 -4 -23 -8 -16 -5 8 -13 6 -29 -7
-19 -15 -20 -20 -9 -29 25 -21 -1 -75 -30 -64 -8 3 -24 -4 -35 -16 -25 -26
-33 -27 -19 -2 7 13 7 22 0 26 -6 3 -13 -1 -16 -9 -3 -9 -11 -13 -17 -9 -6 4
-8 0 -4 -10 5 -14 2 -15 -19 -7 -15 6 -23 6 -19 1 3 -6 -4 -9 -15 -8 -23 1
-25 8 -8 25 7 7 9 12 4 12 -4 0 -14 -7 -23 -15 -14 -14 -17 -14 -34 1 -10 9
-16 21 -12 27 3 5 0 8 -8 5 -17 -6 -71 60 -62 75 3 6 1 7 -5 3 -7 -4 -12 -3
-12 2 0 6 -14 15 -30 21 -17 5 -30 14 -29 18 4 23 -2 43 -13 40 -7 -1 -12 4
-10 11 1 7 -4 15 -12 18 -8 3 -12 13 -9 23 3 11 -3 24 -14 32 -21 15 -43 47
-25 35 6 -3 13 -2 17 4 3 5 1 10 -4 10 -6 0 -11 7 -11 16 0 9 -9 18 -20 21
-13 3 -20 14 -20 29 0 15 -6 24 -16 24 -9 0 -12 -5 -8 -12 4 -7 4 -10 0 -6 -4
3 -7 9 -7 12 1 4 -5 19 -14 36 -8 16 -15 39 -15 52 0 18 -6 24 -27 26 -32 3
-42 15 -35 48 4 22 -4 29 -29 26 -3 -1 -5 16 -5 36 2 48 -10 65 -35 51 -16 -8
-19 -6 -19 11 0 14 -4 19 -12 14 -8 -5 -7 0 2 11 9 11 10 16 3 11 -9 -5 -13 0
-13 16 l-1 23 -14 -25 c-8 -14 -14 -21 -15 -16 0 5 -7 3 -15 -4 -9 -7 -14 -19
-11 -27 3 -8 2 -12 -3 -9 -5 3 -11 -13 -15 -36 -4 -22 -9 -38 -12 -36 -8 8 69
347 78 342 4 -3 5 2 2 11 -4 9 -1 36 6 60 11 39 15 44 29 33 9 -8 8 -3 -4 11
-11 14 -14 21 -7 17 9 -6 12 -1 8 16 -2 13 0 44 4 69 5 24 11 87 13 139 3 52
3 79 0 60 -21 -187 -35 -267 -53 -307 -13 -30 -57 -83 -126 -152 -84 -85 -148
-166 -322 -411 -119 -168 -260 -374 -314 -459 -53 -84 -100 -156 -104 -160 -4
-3 -4 0 0 7 4 6 3 12 -1 12 -5 0 -23 -24 -41 -53 -18 -30 -42 -64 -55 -77 -40
-42 -248 -347 -445 -650 l-81 -125 -108 -28 c-180 -47 -187 -53 -58 -55 61 0
124 -1 140 -1 24 -1 35 -9 50 -33 11 -18 20 -37 21 -43 2 -11 -227 -161 -458
-301 -82 -49 -148 -92 -148 -96 0 -4 59 -5 130 -2 90 4 130 2 130 -5 0 -13
-1548 -16 -1565 -3 -5 4 -26 25 -45 47 l-35 40 38 -35 37 -34 378 2 c207 1
382 2 389 2 7 0 37 33 68 73 52 68 60 73 98 77 62 5 159 3 186 -3 23 -6 23 -6
6 13 -10 11 -22 17 -28 13 -6 -3 -7 -1 -3 5 4 7 -11 34 -36 64 -42 49 -85 80
-443 313 -470 305 -815 540 -815 554 0 24 161 241 190 256 47 25 220 99 295
126 28 10 70 25 94 34 24 9 57 17 73 19 30 4 31 1 112 -163 75 -154 131 -279
252 -571 52 -126 69 -154 62 -103 -3 24 -1 30 7 23 9 -7 16 -5 25 5 7 8 18 15
24 15 6 0 28 9 49 20 20 11 46 20 56 20 11 0 26 7 35 15 8 8 19 15 25 15 6 0
11 8 12 18 1 27 26 -34 46 -116 l19 -73 123 238 c125 242 157 295 169 277 4
-5 29 -23 57 -39 63 -36 205 -178 280 -280 11 -15 23 -42 26 -59 4 -17 7 193
8 467 l1 498 -798 -1 -798 -2 -84 89 c-183 191 -191 214 -14 40 l102 -100 138
5 c135 4 140 6 190 36 28 18 67 47 86 64 64 59 212 126 287 130 92 4 -203 16
-454 18 -154 1 -272 4 -262 7 9 2 15 9 12 13 -3 5 3 18 15 30 11 11 20 27 20
35 0 8 5 15 10 15 6 0 10 7 10 17 0 9 3 13 6 10 4 -4 26 13 50 38 24 24 44 42
44 40 0 -3 9 4 20 15 12 12 24 19 29 16 4 -3 14 4 21 15 8 10 23 19 34 19 11
0 28 8 39 18 15 12 18 13 12 2 -7 -13 -6 -13 7 -2 17 13 195 24 203 12 2 -4
16 -6 30 -5 14 2 28 -2 32 -7 4 -7 1 -8 -7 -3 -8 5 -11 4 -7 -3 4 -5 16 -8 27
-5 12 3 22 -1 26 -11 3 -9 10 -16 15 -16 22 0 120 -80 113 -92 -3 -4 2 -18 10
-30 9 -12 16 -17 16 -10 0 7 5 10 11 7 5 -4 8 -14 6 -23 -3 -16 65 -92 83 -92
4 0 -34 -42 -84 -92 -50 -51 -104 -108 -119 -125 l-27 -33 475 0 475 0 0 1035
0 1035 -869 0 c-760 0 -870 2 -881 15 -11 13 8 15 162 15 294 0 747 13 742 21
-2 4 5 10 16 14 11 4 18 11 15 16 -3 5 1 6 9 3 9 -4 18 1 22 10 3 9 10 14 14
11 4 -3 11 2 14 11 4 9 13 14 22 10 8 -3 12 -2 9 4 -6 9 8 14 28 11 5 -1 6 3
2 9 -4 6 -18 4 -38 -7 -18 -9 -41 -17 -52 -18 -11 -2 -38 -10 -59 -19 -34 -14
-37 -18 -25 -33 18 -22 -83 62 -222 184 -60 53 -109 99 -109 103 0 4 48 35
108 70 59 35 110 68 114 73 3 6 15 12 24 13 21 3 46 33 39 45 -9 13 16 22 28
10 9 -9 8 -11 -4 -6 -10 4 -16 0 -16 -9 0 -13 4 -13 29 0 15 8 28 17 28 20 0
3 -5 2 -12 -2 -7 -5 -8 -3 -4 5 5 7 15 10 23 7 8 -3 11 -1 8 4 -6 9 8 14 28
11 5 -1 6 3 3 8 -7 10 28 26 65 30 8 1 8 5 0 15 -9 11 -6 13 14 11 16 -2 23 1
18 8 -4 7 0 8 11 4 10 -4 15 -3 11 3 -3 6 -1 11 4 11 6 1 16 2 21 3 6 0 15 8
20 16 5 8 10 11 10 6 0 -6 7 -1 16 10 8 10 13 12 9 4 -6 -13 -5 -13 7 0 7 8
20 16 28 18 8 2 20 8 25 15 6 7 15 13 22 14 6 1 63 34 126 72 178 108 175 106
153 87 -11 -9 -16 -16 -12 -16 5 0 4 -6 -2 -12 -6 -7 -22 -44 -37 -83 -15 -38
-31 -79 -35 -90 -16 -39 -38 -101 -80 -225 -23 -69 -49 -137 -56 -152 -8 -15
-14 -29 -12 -30 4 -6 -60 -66 -99 -92 -24 -16 -43 -33 -43 -38 0 -5 -5 -6 -12
-2 -7 4 -8 3 -4 -4 8 -13 46 5 46 21 0 4 5 5 10 2 6 -3 13 0 16 8 2 7 10 14
17 14 7 0 56 26 110 57 54 32 100 56 101 54 2 -2 -23 -70 -54 -153 -38 -101
-53 -152 -46 -157 6 -4 113 -8 239 -8 209 0 227 -1 229 -17 1 -10 2 -97 3
-193 2 -879 10 -2220 12 -2162 4 68 5 73 24 67 12 -4 27 -1 37 8 9 8 40 18 67
22 28 3 79 11 115 16 36 6 117 15 180 19 63 5 141 13 173 19 32 5 68 6 79 2
27 -10 52 12 102 90 l35 57 -6 1355 -6 1355 -41 35 c-116 96 -261 181 -425
247 -203 82 -206 83 -560 87 -194 3 -311 1 -307 -5 3 -5 -3 -17 -14 -27 -11
-10 -24 -34 -31 -54 -6 -20 -15 -40 -20 -45 -5 -6 -9 -18 -9 -28 0 -10 -4 -18
-10 -18 -5 0 -10 -6 -10 -14 0 -7 -7 -19 -15 -26 -9 -7 -14 -18 -12 -24 2 -6
-5 -20 -16 -31 -11 -11 -17 -15 -13 -8 3 6 1 15 -5 19 -7 4 -9 3 -6 -3 4 -6 0
-19 -7 -29 -9 -11 -11 -23 -6 -29 6 -7 2 -11 -11 -12 -12 -1 -17 3 -13 9 4 7
2 8 -5 4 -6 -4 -8 -12 -5 -18 5 -8 1 -9 -10 -5 -11 5 -15 3 -10 -5 5 -7 2 -9
-8 -5 -10 3 -25 -4 -38 -18 -13 -14 -27 -22 -33 -18 -6 3 -7 2 -4 -4 8 -12
-43 -41 -65 -38 -10 2 -16 -2 -15 -8 1 -7 -6 -11 -15 -9 -9 1 -19 -1 -22 -6
-14 -23 -243 9 -281 39 -5 4 -14 8 -20 8 -5 0 -18 8 -27 16 -10 8 -18 10 -18
5 0 -6 -6 -10 -14 -10 -17 0 -8 50 26 139 20 53 25 98 15 131 -3 8 -8 25 -12
37 -4 12 -15 25 -25 28 -10 3 -21 12 -24 20 -3 8 -15 15 -26 15 -11 0 -23 7
-26 15 -5 11 -21 15 -60 15 -30 0 -54 2 -54 4 0 2 -3 11 -6 20 -6 15 56 16
657 16 365 0 729 -5 809 -9z m-1641 -347 c-23 -49 -81 -180 -129 -292 -49
-112 -91 -206 -94 -209 -3 -4 -6 90 -5 208 1 123 4 203 9 189 5 -17 8 -19 9
-7 1 11 9 17 24 17 12 0 31 7 41 15 11 8 28 15 39 15 10 0 16 4 13 9 -3 5 1
11 9 15 10 3 15 -1 16 -12 0 -10 3 -12 6 -4 2 6 11 12 19 12 7 0 12 6 10 13
-1 6 -1 8 2 4 2 -5 18 21 35 57 16 37 32 65 34 63 2 -2 -15 -44 -38 -93z
m3574 -108 c4 -10 1 -13 -9 -9 -7 3 -14 9 -14 14 0 14 17 10 23 -5z m367 4 c0
-5 -4 -10 -10 -10 -5 0 -10 5 -10 10 0 6 5 10 10 10 6 0 10 -4 10 -10z m197
-162 c-2 -7 3 -22 12 -33 16 -20 16 -20 -6 -1 -24 20 -31 46 -12 46 6 0 9 -6
6 -12z m104 -119 c9 -17 8 -20 -2 -14 -9 6 -11 2 -7 -13 4 -12 2 -20 -3 -16
-9 5 -13 64 -4 64 2 0 9 -10 16 -21z m-5557 -1140 c1 -629 -1 -1097 -4 -1039
-8 129 -12 2196 -5 2188 3 -3 7 -520 9 -1149z m5560 965 c5 -14 4 -15 -9 -4
-17 14 -19 20 -6 20 5 0 12 -7 15 -16z m61 -142 c0 -18 -20 -15 -23 4 -3 10 1
15 10 12 7 -3 13 -10 13 -16z m30 -458 c0 -21 -4 -58 -11 -81 -7 -22 -9 -45
-6 -49 4 -4 1 -4 -5 0 -22 13 -12 181 10 173 6 -2 11 -21 12 -43z m-21 -306
c-1 -13 -3 -30 -4 -38 -1 -10 -4 -9 -9 5 -5 11 -4 28 1 38 12 23 15 22 12 -5z
m-4613 -985 c13 -16 12 -17 -3 -4 -17 13 -22 21 -14 21 2 0 10 -8 17 -17z
m3451 -133 c37 -52 96 -134 130 -182 35 -48 117 -165 183 -259 66 -95 192
-272 280 -395 88 -123 202 -284 253 -356 51 -73 104 -149 117 -168 47 -66 130
-187 180 -261 28 -41 58 -83 68 -94 20 -22 59 -85 52 -85 -4 0 -52 63 -232
309 -35 47 -85 116 -110 154 -25 37 -49 67 -52 67 -3 0 -16 -51 -28 -113 -36
-185 -131 -386 -224 -472 -18 -16 -28 -23 -24 -15 12 20 14 50 3 56 -4 3 -8
31 -8 62 0 31 -4 107 -10 167 -5 61 -12 137 -15 170 -16 182 -10 397 12 455 4
8 5 19 4 24 -1 5 5 4 13 -4 9 -7 16 -9 16 -5 0 4 8 1 17 -6 9 -8 -1 11 -23 41
-22 30 -114 163 -204 295 -89 132 -171 250 -181 263 -17 22 -17 2 -22 -505 -5
-579 -6 -594 -69 -752 -28 -71 -94 -191 -104 -191 -3 0 -2 5 1 11 6 8 12 37
18 79 0 3 -3 12 -7 21 -11 25 20 138 51 183 15 22 31 48 35 56 5 12 7 11 8 -5
1 -12 5 -6 11 15 16 67 30 356 27 565 l-3 210 -56 -116 c-159 -328 -346 -485
-585 -492 -102 -3 -162 20 -101 39 12 4 25 12 29 18 4 6 8 64 8 130 l0 118 38
37 c20 21 46 44 57 52 23 16 148 153 250 274 37 44 84 94 104 111 48 40 149
87 186 86 60 -2 65 4 65 72 0 46 -5 70 -19 87 -27 36 -117 164 -169 243 l-45
70 -16 -24 c-94 -142 -571 -731 -534 -659 4 8 67 91 138 183 72 93 187 242
257 333 80 103 132 180 140 206 12 38 13 40 18 17 3 -14 35 -68 72 -120z
m-617 -1326 c6 -525 5 -683 -4 -689 -7 -4 -14 -5 -17 -3 -6 7 -5 1358 2 1369
3 6 7 9 9 7 2 -2 6 -309 10 -684z m-452 361 c-3 -9 -8 -14 -10 -11 -3 3 -2 9
2 15 9 16 15 13 8 -4z m-39 -80 c-4 -8 -8 -15 -10 -15 -2 0 -4 7 -4 15 0 8 4
15 10 15 5 0 7 -7 4 -15z m-40 -77 c-98 -196 -148 -281 -154 -263 -7 21 16 75
31 75 6 0 7 5 4 10 -3 6 4 24 16 41 12 18 33 53 46 78 20 40 71 111 80 111 2
0 -9 -24 -23 -52z m2441 -708 c10 -11 16 -20 13 -20 -3 0 -13 9 -23 20 -10 11
-16 20 -13 20 3 0 13 -9 23 -20z m-4784 -27 c13 -16 12 -17 -3 -4 -10 7 -18
15 -18 17 0 8 8 3 21 -13z m1844 -163 c-3 -5 -34 -10 -68 -10 -44 0 -58 3 -47
10 20 13 123 13 115 0z m153 5 c-9 -10 -88 -13 -88 -4 0 5 21 9 47 9 25 0 44
-2 41 -5z m-3198 -752 c0 -10 -4 -14 -8 -8 -4 6 -11 13 -16 18 -5 4 -2 7 7 7
10 0 17 -8 17 -17z m41 -110 c13 -16 12 -17 -3 -4 -17 13 -22 21 -14 21 2 0
10 -8 17 -17z m119 -207 c0 -3 -4 -8 -10 -11 -5 -3 -10 -1 -10 4 0 6 5 11 10
11 6 0 10 -2 10 -4z"/>
<path d="M8165 8690 c-3 -5 -12 -7 -20 -3 -8 3 -15 1 -15 -5 0 -13 27 -9 42 6
7 7 9 12 6 12 -4 0 -9 -4 -13 -10z"/>
<path d="M8099 8644 c-7 -9 -6 -12 6 -10 22 3 40 23 20 23 -8 0 -20 -6 -26
-13z"/>
<path d="M7936 8428 c-12 -16 -13 -25 -4 -35 10 -12 13 -12 20 2 5 8 13 13 19
10 20 -13 30 7 13 26 -22 24 -29 24 -48 -3z m48 -17 c-4 -3 -9 0 -11 7 -4 10
-9 9 -24 -4 -23 -21 -25 -12 -3 11 13 12 19 13 30 4 8 -7 12 -15 8 -18z"/>
<path d="M8302 8423 c-7 -3 -17 -14 -23 -25 -9 -18 -8 -18 10 -9 32 18 43 44
13 34z"/>
<path d="M7898 8368 c-36 -56 -38 -65 -20 -79 14 -11 15 -11 5 0 -6 7 -9 20
-6 27 8 20 23 17 17 -3 -4 -14 -2 -13 7 2 12 18 22 75 14 75 -1 0 -9 -10 -17
-22z m9 -23 c0 -8 -4 -12 -9 -9 -5 3 -6 10 -3 15 9 13 12 11 12 -6z"/>
<path d="M8223 8372 c-8 -5 -7 -11 2 -19 11 -10 15 -10 18 0 4 9 6 9 6 0 1
-18 18 -16 18 2 0 8 -3 13 -5 10 -3 -3 -10 -1 -16 5 -7 5 -17 6 -23 2z"/>
<path d="M8051 8344 c0 -11 3 -14 6 -6 3 7 2 16 -1 19 -3 4 -6 -2 -5 -13z"/>
<path d="M8195 8336 c-13 -13 -8 -46 7 -46 5 0 7 7 4 16 -5 12 -2 15 10 10 15
-6 15 -4 3 11 -7 10 -13 19 -14 19 0 1 -5 -3 -10 -10z"/>
<path d="M8010 5860 c0 -12 28 -25 36 -17 3 3 -4 10 -15 17 -15 7 -21 7 -21 0z"/>
<path d="M8180 5756 c0 -2 7 -7 16 -10 8 -3 12 -2 9 4 -6 10 -25 14 -25 6z"/>
<path d="M8205 5721 c-3 -5 0 -13 6 -17 7 -4 9 -3 5 4 -3 5 0 13 6 15 9 4 10
6 1 6 -6 1 -14 -3 -18 -8z"/>
<path d="M8354 5588 c5 -32 14 -48 26 -48 12 0 7 22 -13 50 l-18 25 5 -27z"/>
<path d="M8380 5513 c0 -5 4 -14 9 -21 7 -11 9 -11 14 1 3 8 3 18 0 21 -9 8
-23 7 -23 -1z"/>
<path d="M8397 5419 c7 -7 15 -10 18 -7 3 3 -2 9 -12 12 -14 6 -15 5 -6 -5z"/>
<path d="M5235 5387 c-12 -10 -15 -16 -6 -21 6 -4 14 0 17 8 3 9 11 13 17 9 6
-3 7 -1 3 5 -9 15 -8 15 -31 -1z"/>
<path d="M7294 5389 c-3 -6 -1 -16 5 -22 8 -8 11 -5 11 11 0 24 -5 28 -16 11z"/>
<path d="M7311 5345 c0 -5 8 -26 19 -45 11 -19 19 -30 19 -25 0 6 -8 26 -19
45 -11 19 -19 31 -19 25z"/>
<path d="M7350 5255 c0 -5 5 -17 10 -25 5 -8 10 -10 10 -5 0 6 -5 17 -10 25
-5 8 -10 11 -10 5z"/>
<path d="M7391 5145 c0 -5 11 -48 25 -95 20 -72 25 -69 10 5 -6 29 -35 102
-35 90z"/>
<path d="M7442 4940 c0 -14 2 -19 5 -12 2 6 2 18 0 25 -3 6 -5 1 -5 -13z"/>
<path d="M7451 4884 c0 -11 3 -14 6 -6 3 7 2 16 -1 19 -3 4 -6 -2 -5 -13z"/>
<path d="M7483 4640 c0 -25 2 -35 4 -22 2 12 2 32 0 45 -2 12 -4 2 -4 -23z"/>
<path d="M7492 4435 c0 -16 2 -22 5 -12 2 9 2 23 0 30 -3 6 -5 -1 -5 -18z"/>
<path d="M6816 4128 c-9 -37 -7 -346 3 -353 6 -3 10 72 11 185 0 104 -1 190
-4 190 -2 0 -6 -10 -10 -22z"/>
<path d="M8452 4030 c0 -14 2 -19 5 -12 2 6 2 18 0 25 -3 6 -5 1 -5 -13z"/>
<path d="M6845 4007 c-4 -20 -3 -68 2 -105 l9 -67 8 65 c4 36 3 83 -2 105 l-9
40 -8 -38z"/>
<path d="M8381 3744 c0 -11 3 -14 6 -6 3 7 2 16 -1 19 -3 4 -6 -2 -5 -13z"/>
<path d="M8362 3695 c0 -16 2 -22 5 -12 2 9 2 23 0 30 -3 6 -5 -1 -5 -18z"/>
<path d="M8382 3608 c1 -41 3 -45 14 -30 15 19 19 66 5 58 -5 -4 -12 0 -14 6
-3 7 -5 -8 -5 -34z"/>
<path d="M8345 3610 c3 -5 1 -10 -4 -10 -6 0 -11 -7 -11 -15 0 -8 5 -15 10
-15 6 0 10 5 10 11 0 5 5 7 11 3 8 -4 8 0 0 15 -7 11 -14 21 -17 21 -3 0 -2
-4 1 -10z"/>
<path d="M8355 3481 c-3 -5 -2 -12 3 -15 5 -3 9 1 9 9 0 17 -3 19 -12 6z"/>
<path d="M7590 3450 c0 -11 4 -20 9 -20 5 0 7 9 4 20 -3 11 -7 20 -9 20 -2 0
-4 -9 -4 -20z"/>
<path d="M8323 3442 c-1 -22 0 -24 9 -8 6 10 6 22 2 26 -5 5 -10 -3 -11 -18z"/>
<path d="M8169 2963 c0 -4 -2 -18 -5 -31 -3 -19 -2 -21 10 -10 8 8 10 15 4 17
-6 2 -5 6 2 11 9 5 9 9 1 14 -6 4 -11 4 -12 -1z"/>
<path d="M5070 1700 c0 -5 5 -10 11 -10 5 0 7 5 4 10 -3 6 -8 10 -11 10 -2 0
-4 -4 -4 -10z"/>
<path d="M8080 2350 c12 -16 24 -30 26 -30 3 0 -4 14 -16 30 -12 17 -24 30
-26 30 -3 0 4 -13 16 -30z"/>
<path d="M7541 1854 c0 -11 3 -14 6 -6 3 7 2 16 -1 19 -3 4 -6 -2 -5 -13z"/>
<path d="M7405 9861 c-3 -5 -1 -12 4 -15 5 -3 11 1 15 9 6 16 -9 21 -19 6z"/>
<path d="M7810 9446 c7 -7 14 -6 21 1 9 9 7 12 -9 10 -14 -1 -18 -5 -12 -11z"/>
<path d="M7900 9335 c-9 -11 -9 -15 -1 -15 7 0 10 -4 7 -9 -3 -5 3 -11 15 -14
17 -4 19 -2 13 16 -10 33 -19 39 -34 22z"/>
<path d="M7936 9272 c-3 -5 5 -19 19 -32 23 -22 24 -22 18 -1 -6 25 -29 45
-37 33z"/>
<path d="M4665 8950 c10 -11 20 -20 23 -20 3 0 -3 9 -13 20 -10 11 -20 20 -23
20 -3 0 3 -9 13 -20z"/>
<path d="M4720 8886 c0 -2 8 -10 18 -17 15 -13 16 -12 3 4 -13 16 -21 21 -21
13z"/>
<path d="M2839 8412 c-24 -26 -203 -218 -398 -426 -255 -273 -350 -381 -340
-386 8 -4 47 -13 86 -20 72 -13 73 -13 88 -54 22 -61 268 -846 300 -958 15
-54 31 -98 36 -98 5 0 6 -8 3 -17 -3 -10 0 -8 8 5 11 17 16 20 26 10 9 -9 12
-8 12 5 0 9 5 18 10 18 6 1 15 3 20 4 6 1 15 3 20 4 6 0 10 8 10 16 0 8 3 14
8 13 13 -3 42 14 73 43 22 20 33 42 39 76 7 44 8 41 11 -42 2 -49 6 313 10
805 4 579 10 921 18 969 6 41 9 76 7 78 -2 2 -23 -18 -47 -45z"/>
<path d="M6200 6956 c0 -2 8 -10 18 -17 15 -13 16 -12 3 4 -13 16 -21 21 -21
13z"/>
<path d="M3 29 c-1 -10 4 -20 10 -20 7 -1 24 -3 40 -5 15 -1 27 1 27 7 0 5 -8
9 -18 9 -10 0 -27 6 -38 14 -18 13 -20 12 -21 -5z"/>
</g>
</svg>
